{"title":"Pink Floyd The Endless River [2014] x264","uid":11524257,"size":142774045,"categoryP":"other","categoryS":"other","magnet":"?xt=urn:btih:3ad8ee04839978d72992ea9fbbfbd8929df96e23&amp;dn=Pink+Floyd+The+Endless+River+%5B2014%5D+x264&amp;tr=udp%3A%2F%2Ftracker.openbittorrent.com%3A80&amp;tr=udp%3A%2F%2Fopen.demonii.com%3A1337&amp;tr=udp%3A%2F%2Ftracker.coppersurfer.tk%3A6969&amp;tr=udp%3A%2F%2Fexodus.desync.com%3A6969","seeders":1,"leechers":0,"uploader":"Capajebo","files":2,"time":1416513127,"description":"Pink Floyd The Endless River 480p [2014] x264 VIDEO + Digital Booklet 2014\n-\nGeneral\nComplete name                            : Pink Floyd - The Endless River 2014.mp4\nFormat                                   : MPEG-4\nFile size                                : 133 MiB\nDuration                                 : 27mn 7s\nOverall bit rate                         : 684 Kbps\nMovie name                               : Pink Floyd - The Endless River 2014\nPerformer                                : Pink Floyd\nGenre                                    : Psychedelic Rock\nDate                                     : 2014\n\nVideo\nID                                       : 1\nFormat                                   : AVC\nFormat/Info                              : Advanced Video Codec\nFormat profile                           : &lt;a class=&quot;__cf_email__&quot; href=&quot;/cdn-cgi/l/email-protection&quot; data-cfemail=&quot;99d1f0fef1d9d5adb7a8&quot;&gt;[email&amp;#160;protected]&lt;/a&gt;&lt;script cf-hash='f9e31' type=&quot;text/javascript&quot;&gt;\n/* &lt;![CDATA[ */!function(){try{var t=&quot;currentScript&quot;in document?document.currentScript:function(){for(var t=document.getElementsByTagName(&quot;script&quot;),e=t.length;e--;)if(t[e].getAttribute(&quot;cf-hash&quot;))return t[e]}();if(t&amp;&amp;t.previousSibling){var e,r,n,i,c=t.previousSibling,a=c.getAttribute(&quot;data-cfemail&quot;);if(a){for(e=&quot;&quot;,r=parseInt(a.substr(0,2),16),n=2;a.length-n;n+=2)i=parseInt(a.substr(n,2),16)^r,e+=String.fromCharCode(i);e=document.createTextNode(e),c.parentNode.replaceChild(e,c)}}}catch(u){}}();/* ]]&gt; */&lt;/script&gt;\nFormat settings, CABAC                   : Yes\nFormat settings, ReFrames                : 3 frames\nCodec ID/Info                            : Advanced Video Coding\nDuration                                 : 27mn 7s\nBit rate                                 : 547 Kbps\nWidth                                    : 720 pixels\nHeight                                   : 480 pixels\nOriginal display aspect ratio            : 16:9\nFrame rate mode                          : Constant\nFrame rate                               : 29.970 fps\nStandard                                 : NTSC\nColor space                              : YUV\nChroma subsampling                       : 4:2:0\nBit depth                                : 8 bits\nScan type                                : Progressive\nBits/(Pixel*Frame)                       : 0.053\nStream size                              : 106 MiB (80%)\nWriting library                          : x264 core 128 r2216Md\nLanguage                                 : English\n\nAudio\nID                                       : 2\nFormat                                   : AAC\nFormat/Info                              : Advanced Audio Codec\nFormat profile                           : LC\nCodec ID                                 : 40\nDuration                                 : 27mn 7s\nBit rate mode                            : Constant\nBit rate                                 : 128 Kbps\nChannel count                            : 2 channels\nChannel positions                        : Front: L R\nSampling rate                            : 48.0 KHz\nCompression mode                         : Lossy\nDelay relative to video                  : 67ms\nStream size                              : 24.8 MiB (19%)\nLanguage                                 : English","torrent":{"xt":"urn:btih:3ad8ee04839978d72992ea9fbbfbd8929df96e23","amp;dn":"Pink+Floyd+The+Endless+River+%5B2014%5D+x264","amp;tr":["udp%3A%2F%2Ftracker.openbittorrent.com%3A80","udp%3A%2F%2Fopen.demonii.com%3A1337","udp%3A%2F%2Ftracker.coppersurfer.tk%3A6969","udp%3A%2F%2Fexodus.desync.com%3A6969"],"infoHash":"3ad8ee04839978d72992ea9fbbfbd8929df96e23","infoHashBuffer":{"type":"Buffer","data":[58,216,238,4,131,153,120,215,41,146,234,159,187,251,216,146,157,249,110,35]},"announce":[],"urlList":[]}}